<svg id="Layer_1" data-name="Layer 1" xmlns="http://www.w3.org/2000/svg" viewBox="0 0 305.01 59.54"><defs><style>.cls-1{fill:#1a1c2b;}.cls-2{fill:#da7027;}</style></defs><path class="cls-1" d="M102.48,2.57A3.53,3.53,0,0,0,99.23,0H3.49A3.79,3.79,0,0,0,0,4V55.51a3.78,3.78,0,0,0,3.49,4h113c2.45,0,4.14-2.84,3.25-5.49ZM35.14,42.07c0,4.27-2,6.3-6.3,6.3H18.49c-4.27,0-6.3-2-6.3-6.3v-4h6.3v3.51c0,.67.23.9.9.9h8.37c.68,0,.9-.23.9-.9V37.84c0-1-.36-1.26-1.53-1.53l-8.37-1.8c-4-.86-6.48-2.43-6.48-6.48V23.17c0-4.28,2-6.3,6.3-6.3H28.3c4.28,0,6.3,2,6.3,6.3v3.6H28.3V23.62c0-.68-.22-.9-.9-.9H19.66c-.67,0-.9.22-.9.9V27c0,1,.36,1.26,1.53,1.53l8.37,1.8c4,.85,6.48,2.43,6.48,6.48Zm24.3,6.3-1.93-6.84H46.71l-1.94,6.84H37.93l9.59-31.5H57l9.58,31.5Zm36.36,0H89.5l-12.37-21v21h-6.3V16.87h6.75L89.5,37.16V16.87h6.3Z"/><polygon class="cls-1" points="48.37 35.59 55.84 35.59 52.11 22.36 48.37 35.59"/><path class="cls-1" d="M141.07,16.87h-11c-4.28,0-6.3,2-6.3,6.3v18.9c0,4.27,2,6.3,6.3,6.3h2.29v5.76h6.48V48.37h2.25c4.28,0,6.3-2,6.3-6.3V23.17C147.37,18.89,145.35,16.87,141.07,16.87Zm-.18,24.66c0,.67-.22.9-.9.9h-8.86c-.68,0-.9-.23-.9-.9V23.71c0-.68.22-.9.9-.9H140c.68,0,.9.22.9.9Z"/><path class="cls-1" d="M170.5,41.53c0,.67-.22.9-.9.9h-8.82c-.67,0-.9-.23-.9-.9V16.87H153.4v25.2c0,4.27,2,6.3,6.3,6.3h11c4.27,0,6.3-2,6.3-6.3V16.87H170.5Z"/><rect class="cls-1" x="183.78" y="16.87" width="6.48" height="31.5"/><polygon class="cls-1" points="216.04 37.16 204.12 16.87 197.37 16.87 197.37 48.37 203.66 48.37 203.66 27.35 216.04 48.37 222.34 48.37 222.34 16.87 216.04 16.87 216.04 37.16"/><polygon class="cls-1" points="227.02 22.72 235.57 22.72 235.57 48.37 242.05 48.37 242.05 22.72 250.6 22.72 250.6 16.87 227.02 16.87 227.02 22.72"/><rect class="cls-1" x="255.28" y="16.87" width="6.48" height="31.5"/><polygon class="cls-1" points="287.54 16.87 287.54 37.16 275.62 16.87 268.87 16.87 268.87 48.37 275.17 48.37 275.17 27.35 287.54 48.37 293.84 48.37 293.84 16.87 287.54 16.87"/><path class="cls-2" d="M124.62,3.3h1.74l2,4.54,2.06-4.54h1.74V11h-1.57V6.1L129,10h-1.17L126.14,6.1V11h-1.52Z"/><path class="cls-2" d="M138.73,9.34h-2.65L135.6,11h-1.67l2.35-7.72h2.31L140.94,11H139.2Zm-.41-1.45-.92-3.25-.91,3.25Z"/><path class="cls-2" d="M142.66,3.3h1.66l2.92,5v-5h1.55V11h-1.55l-3-5.15V11h-1.55Z"/><path class="cls-2" d="M152.7,4.73h-2.1V3.3h5.79V4.73h-2.1V11H152.7Z"/><path class="cls-2" d="M158.2,3.3h5.2V4.75h-3.61v1.6h2.93V7.79h-2.93V9.56h3.61V11h-5.2Z"/><path class="cls-2" d="M165.47,3.3h1.66l2.92,5v-5h1.55V11h-1.55l-3-5.15V11h-1.55Z"/><path class="cls-2" d="M174,3.3h1.59V11H174Z"/><path class="cls-2" d="M178,3.3h1.75l2.05,4.54,2.05-4.54h1.74V11H184V6.1L182.37,10H181.2L179.53,6.1V11H178Z"/><path class="cls-2" d="M188,3.3h1.58V11H188Z"/><path class="cls-2" d="M192,3.3h5.2V4.75h-3.61v1.6h2.92V7.79h-2.92V9.56h3.61V11H192Z"/><path class="cls-2" d="M199.29,3.3h1.65l2.93,5v-5h1.54V11h-1.54l-3-5.15V11h-1.54Z"/><path class="cls-2" d="M209.33,4.73h-2.1V3.3H213V4.73h-2.1V11h-1.58Z"/><path class="cls-2" d="M214.51,9.47V4.84a1.35,1.35,0,0,1,1.54-1.54h2.84a1.34,1.34,0,0,1,1.54,1.54V9.47A1.35,1.35,0,0,1,218.89,11h-2.84A1.35,1.35,0,0,1,214.51,9.47Zm4.11.09c.17,0,.23-.05.23-.22V5c0-.16-.06-.22-.23-.22h-2.3c-.17,0-.22.06-.22.22V9.34c0,.17.05.22.22.22Z"/><path class="cls-2" d="M226,3.3h1.59V11H226Z"/><path class="cls-2" d="M230,3.3h1.66l2.92,5v-5h1.55V11h-1.55l-3-5.15V11H230Z"/><path class="cls-2" d="M238.52,3.3h4.23a1.35,1.35,0,0,1,1.54,1.54V9.47A1.35,1.35,0,0,1,242.75,11h-4.23Zm4,6.26c.17,0,.22-.05.22-.22V5c0-.16,0-.22-.22-.22h-2.37V9.56Z"/><path class="cls-2" d="M246.44,9.47V3.3H248v6c0,.17.05.22.22.22h2.16c.17,0,.22-.05.22-.22v-6h1.59V9.47A1.35,1.35,0,0,1,250.68,11H248A1.35,1.35,0,0,1,246.44,9.47Z"/><path class="cls-2" d="M254.33,9.47v-1h1.54v.86c0,.17.06.22.22.22h2.05c.17,0,.22-.05.22-.22V8.44c0-.25-.09-.31-.37-.38l-2.05-.44c-1-.21-1.59-.59-1.59-1.59V4.84a1.34,1.34,0,0,1,1.54-1.54h2.38a1.35,1.35,0,0,1,1.55,1.54v.88h-1.55V5c0-.16,0-.22-.21-.22h-1.9c-.17,0-.22.06-.22.22v.84c0,.24.08.31.37.37l2.05.45c1,.21,1.59.59,1.59,1.58V9.47A1.35,1.35,0,0,1,258.41,11h-2.54A1.35,1.35,0,0,1,254.33,9.47Z"/><path class="cls-2" d="M263.52,4.73h-2.09V3.3h5.78V4.73h-2.1V11h-1.59Z"/><path class="cls-2" d="M274.89,11h-1.71L271.9,8.29h-1.28V11H269V3.3h4.07a1.34,1.34,0,0,1,1.54,1.54V6.71c0,.87-.34,1.36-1.07,1.5Zm-2.06-4.14c.17,0,.23,0,.23-.22V5c0-.16-.06-.22-.23-.22h-2.21V6.88Z"/><path class="cls-2" d="M276.87,3.3h1.59V11h-1.59Z"/><path class="cls-2" d="M285,9.34h-2.65L281.86,11h-1.68l2.35-7.72h2.32L287.2,11h-1.75Zm-.41-1.45-.92-3.25-.91,3.25Z"/><path class="cls-2" d="M288.91,3.3h1.59V9.56h3.33V11h-4.92Z"/><path class="cls-1" d="M301.8,45.69a3.21,3.21,0,1,1,3.21-3.2A3.21,3.21,0,0,1,301.8,45.69Zm0-5.82a2.62,2.62,0,1,0,2.62,2.62A2.61,2.61,0,0,0,301.8,39.87Z"/><path class="cls-1" d="M302.93,43.83h-.61l-.46-1h-.46v1h-.57V41.05h1.46a.49.49,0,0,1,.55.56v.67c0,.31-.12.49-.38.54Zm-.74-1.49c.06,0,.08,0,.08-.08v-.61c0-.06,0-.08-.08-.08h-.79v.77Z"/></svg>